M48
;Layer_Color=9474304
;FILE_FORMAT=2:4
INCH
;TYPE=PLATED
T1F00S00C0.0150
T2F00S00C0.0250
T3F00S00C0.0390
%
T01
X001380Y000290
X002820Y001150
X003790Y001410
X003509Y001850
X004300Y002640
X004860Y003100
X005260Y003110
X005125Y004378
X003934Y003844
X003890Y003290
X003550Y004760
X002990Y004210
X002210Y005340
X001860Y005480
X004820Y001140
X006900Y001560
X007430Y001790
X007314Y002426
X007850Y003030
X008000Y004520
X008790Y004553
X007070Y004630
X006550Y003710
X006460Y003390
X007466Y001024
X009180Y001520
X009580Y001510
X009810Y002270
X010730Y003100
X010376Y004214
X012610Y005050
X012730Y003098
X012390Y001150
X014040Y000450
X012710Y006602
X010310Y006660
X006820Y006770
X006240
X005499Y006309
X004750Y006740
X001860Y007080
T02
X001100Y001700
X001600
Y002200
X001100
Y002700
X001600
Y003200
X001100
Y003700
X001600
T03
X000700Y005800
Y006800
X003200
Y005800
M30
