%FSLAX24Y24*%
%MOIN*%
G70*
G01*
G75*
G04 Layer_Physical_Order=1*
G04 Layer_Color=255*
%ADD10R,0.0256X0.0354*%
%ADD11R,0.0551X0.0472*%
%ADD12R,0.1378X0.1378*%
%ADD13O,0.0394X0.0098*%
%ADD14O,0.0098X0.0394*%
%ADD15R,0.0866X0.0630*%
%ADD16C,0.0394*%
%ADD17R,0.0413X0.0425*%
%ADD18R,0.0315X0.0295*%
%ADD19R,0.0295X0.0315*%
%ADD20R,0.0360X0.0360*%
%ADD21R,0.0500X0.0360*%
%ADD22R,0.0984X0.0787*%
%ADD23R,0.0906X0.0197*%
%ADD24C,0.0060*%
%ADD25C,0.0150*%
%ADD26C,0.0400*%
%ADD27C,0.0550*%
%ADD28R,0.0550X0.0550*%
%ADD29C,0.0360*%
%ADD30C,0.0250*%
G36*
X8956Y2953D02*
X9022D01*
Y2653D01*
X8943D01*
Y2538D01*
X8797D01*
Y2653D01*
X8323D01*
Y2541D01*
X8261Y2508D01*
X8228Y2529D01*
X8197Y2535D01*
Y2653D01*
X7723D01*
Y2538D01*
X7486D01*
X7462Y2574D01*
X7394Y2619D01*
X7314Y2635D01*
X7234Y2619D01*
X7199Y2595D01*
X7137Y2628D01*
Y2693D01*
X6663D01*
Y2693D01*
X6653D01*
X6604Y2743D01*
Y2749D01*
X6356D01*
Y2751D01*
X6113D01*
Y2769D01*
X6104Y2812D01*
X6099Y2820D01*
X6138Y2878D01*
X6170Y2872D01*
X6727D01*
Y2793D01*
X7182D01*
Y3267D01*
X7112D01*
Y3339D01*
X7240Y3466D01*
X7343D01*
Y3397D01*
X7817D01*
Y3466D01*
X8208D01*
Y2953D01*
X8624D01*
Y3466D01*
X8956D01*
Y2953D01*
D02*
G37*
G36*
X10640Y4020D02*
D01*
Y4020D01*
X10598Y3978D01*
X9968D01*
Y4020D01*
X9956Y4080D01*
X9922Y4132D01*
X9786Y4267D01*
X9744Y4296D01*
X9764Y4363D01*
X10640D01*
Y4020D01*
D02*
G37*
G36*
X14900Y100D02*
X9073D01*
X9029Y154D01*
X9038Y200D01*
X9038Y201D01*
X9038Y202D01*
Y349D01*
X9166D01*
Y888D01*
X9274D01*
Y349D01*
X9847D01*
Y934D01*
X9670D01*
X9664Y962D01*
X9640Y999D01*
X9559Y1079D01*
X9523Y1104D01*
X9480Y1112D01*
X9480Y1112D01*
X9422D01*
X9402Y1179D01*
X9419Y1191D01*
X9538Y1309D01*
X9580Y1301D01*
X9660Y1317D01*
X9728Y1362D01*
X9773Y1430D01*
X9789Y1510D01*
X9773Y1590D01*
X9728Y1658D01*
X9660Y1703D01*
X9580Y1719D01*
X9500Y1703D01*
X9479Y1689D01*
X9417Y1722D01*
Y1844D01*
X9180D01*
Y1944D01*
X9417D01*
Y1982D01*
X9482Y2009D01*
X9611Y1881D01*
X9611Y1881D01*
X9647Y1856D01*
X9647Y1856D01*
X9647Y1856D01*
D01*
X9647Y1856D01*
X9647Y1856D01*
X9690Y1848D01*
X9690Y1848D01*
X10354D01*
X10517Y1685D01*
Y1525D01*
X10116D01*
Y735D01*
X11142D01*
Y1525D01*
X10741D01*
Y1731D01*
X10741Y1731D01*
X10733Y1774D01*
X10708Y1810D01*
X10479Y2039D01*
X10443Y2064D01*
X10400Y2072D01*
X10400Y2072D01*
X9736D01*
X9569Y2239D01*
X9533Y2264D01*
X9490Y2272D01*
X9490Y2272D01*
X9417D01*
Y2653D01*
X9338D01*
Y2953D01*
X9372D01*
Y3468D01*
X9322D01*
Y3536D01*
X9310Y3596D01*
X9276Y3648D01*
X9187Y3736D01*
X9136Y3770D01*
X9076Y3782D01*
X8158D01*
Y3898D01*
X8208D01*
Y3898D01*
X8740D01*
Y4155D01*
X8840D01*
Y3898D01*
X9372D01*
Y3997D01*
X9609D01*
X9652Y3955D01*
Y3403D01*
X9573D01*
Y2948D01*
X10047D01*
Y3403D01*
X9968D01*
Y3662D01*
X11409D01*
X11469Y3674D01*
X11521Y3708D01*
X11671Y3859D01*
X11705Y3910D01*
X11717Y3971D01*
Y4020D01*
X12140D01*
Y5390D01*
X12091D01*
Y5430D01*
X11558D01*
Y5480D01*
X11508D01*
Y5658D01*
X11025D01*
Y5658D01*
X11020D01*
X10970Y5708D01*
Y6128D01*
X11025D01*
Y6128D01*
X11547D01*
Y6602D01*
Y7076D01*
X11025D01*
Y6560D01*
X10970D01*
Y6560D01*
X8270D01*
Y6610D01*
X8155D01*
X8146Y6655D01*
X8112Y6706D01*
X7936Y6882D01*
X7885Y6916D01*
X7824Y6928D01*
X6952D01*
X6900Y6963D01*
X6838Y6975D01*
X6622Y7192D01*
X6570Y7226D01*
X6510Y7238D01*
X4300D01*
X4240Y7226D01*
X4188Y7192D01*
X3955Y6958D01*
X3519D01*
X3510Y6979D01*
X3453Y7053D01*
X3379Y7110D01*
X3293Y7146D01*
X3200Y7158D01*
X3107Y7146D01*
X3021Y7110D01*
X2947Y7053D01*
X2890Y6979D01*
X2854Y6893D01*
X2842Y6800D01*
X2854Y6707D01*
X2890Y6621D01*
X2947Y6547D01*
X3021Y6490D01*
X3107Y6454D01*
X3200Y6442D01*
X3293Y6454D01*
X3379Y6490D01*
X3453Y6547D01*
X3510Y6621D01*
X3519Y6642D01*
X3685D01*
X3776Y6550D01*
Y4983D01*
X3697D01*
Y4983D01*
X3635Y4950D01*
X3630Y4953D01*
X3550Y4969D01*
X3470Y4953D01*
X3438Y4932D01*
X3416D01*
X3365Y4953D01*
X3361Y4975D01*
X3337Y5011D01*
X3337Y5011D01*
X2967Y5380D01*
X2994Y5445D01*
X3555D01*
Y6155D01*
X2845D01*
Y5594D01*
X2780Y5567D01*
X1879Y6469D01*
X1843Y6493D01*
X1800Y6501D01*
X1800Y6501D01*
X1466D01*
X1088Y6879D01*
X1052Y6904D01*
X1040Y6906D01*
X1010Y6979D01*
X953Y7053D01*
X879Y7110D01*
X793Y7146D01*
X700Y7158D01*
X607Y7146D01*
X521Y7110D01*
X447Y7053D01*
X390Y6979D01*
X354Y6893D01*
X342Y6800D01*
X354Y6707D01*
X390Y6621D01*
X447Y6547D01*
X521Y6490D01*
X607Y6454D01*
X700Y6442D01*
X793Y6454D01*
X879Y6490D01*
X953Y6547D01*
X986Y6590D01*
X1056Y6594D01*
X1340Y6310D01*
X1340Y6310D01*
X1376Y6286D01*
X1419Y6277D01*
X1754D01*
X2054Y5977D01*
X2027Y5912D01*
X1055D01*
Y6155D01*
X345D01*
Y5445D01*
X1055D01*
Y5688D01*
X2121D01*
X2199Y5610D01*
X2179Y5543D01*
X2130Y5533D01*
X2062Y5488D01*
X2017Y5420D01*
X2001Y5340D01*
X2017Y5260D01*
X2062Y5192D01*
X2130Y5147D01*
X2210Y5131D01*
X2268Y5143D01*
X2323Y5098D01*
Y4708D01*
X2797D01*
Y4920D01*
X2862Y4946D01*
X2988Y4821D01*
Y4551D01*
X2988Y4551D01*
X2996Y4508D01*
X3013Y4483D01*
X2987Y4418D01*
X2910Y4403D01*
X2859Y4369D01*
X2797Y4402D01*
Y4632D01*
X2323D01*
Y4516D01*
X1804D01*
X1804Y4516D01*
X1761Y4508D01*
X1725Y4484D01*
X1521Y4279D01*
X1496Y4243D01*
X1488Y4200D01*
X1488Y4200D01*
Y3957D01*
X1459Y3945D01*
X1400Y3900D01*
X1385Y3880D01*
X1315D01*
X1300Y3900D01*
X1241Y3945D01*
X1173Y3973D01*
X1100Y3982D01*
X1027Y3973D01*
X959Y3945D01*
X900Y3900D01*
X855Y3841D01*
X827Y3773D01*
X818Y3700D01*
X827Y3627D01*
X855Y3559D01*
X900Y3500D01*
X920Y3485D01*
Y3415D01*
X900Y3400D01*
X855Y3341D01*
X827Y3273D01*
X824Y3250D01*
X1100D01*
Y3150D01*
X824D01*
X827Y3127D01*
X855Y3059D01*
X900Y3000D01*
X920Y2985D01*
Y2915D01*
X900Y2900D01*
X855Y2841D01*
X827Y2773D01*
X824Y2750D01*
X1100D01*
Y2650D01*
X824D01*
X827Y2627D01*
X855Y2559D01*
X900Y2500D01*
X920Y2485D01*
Y2415D01*
X900Y2400D01*
X855Y2341D01*
X827Y2273D01*
X818Y2200D01*
X827Y2127D01*
X855Y2059D01*
X900Y2000D01*
X920Y1985D01*
Y1915D01*
X900Y1900D01*
X855Y1841D01*
X827Y1773D01*
X824Y1750D01*
X1100D01*
Y1700D01*
X1150D01*
Y1424D01*
X1173Y1427D01*
X1241Y1455D01*
X1300Y1500D01*
X1315Y1520D01*
X1385D01*
X1400Y1500D01*
X1459Y1455D01*
X1527Y1427D01*
X1600Y1418D01*
X1673Y1427D01*
X1741Y1455D01*
X1800Y1500D01*
X1845Y1559D01*
X1857Y1588D01*
X1944D01*
X2011Y1521D01*
X2011Y1521D01*
X2047Y1496D01*
X2047Y1496D01*
X2047Y1496D01*
D01*
X2047Y1496D01*
X2047Y1496D01*
X2090Y1488D01*
X2297D01*
Y1363D01*
X2629D01*
X2672Y1298D01*
X2627Y1230D01*
X2615Y1168D01*
X2588Y1141D01*
X2553Y1090D01*
X2541Y1029D01*
Y934D01*
X2413D01*
Y349D01*
X2542D01*
Y200D01*
X2542Y200D01*
X2542D01*
X2551Y154D01*
X2507Y100D01*
X100D01*
Y7400D01*
X14900D01*
Y100D01*
D02*
G37*
G36*
X4778Y3981D02*
X4777Y3974D01*
Y3679D01*
X4787Y3628D01*
X4792Y3621D01*
X4495Y3323D01*
X4470Y3287D01*
X4462Y3244D01*
X4462Y3244D01*
Y2906D01*
X4462Y2906D01*
X4470Y2863D01*
X4495Y2827D01*
X4571Y2751D01*
X4571Y2751D01*
X4592Y2737D01*
Y2493D01*
X4537D01*
Y2493D01*
X4350D01*
Y2266D01*
Y2038D01*
X4537D01*
Y2038D01*
X4542D01*
X4592Y1989D01*
Y1962D01*
X4537D01*
Y1962D01*
X4063D01*
Y1507D01*
X4537D01*
Y1507D01*
X4542D01*
X4592Y1457D01*
Y1419D01*
X6604D01*
Y1707D01*
X6663D01*
Y1707D01*
X6850D01*
Y1934D01*
Y2162D01*
X6663D01*
Y2162D01*
X6653D01*
X6604Y2211D01*
Y2238D01*
X6663D01*
Y2238D01*
X7137D01*
Y2238D01*
X7226Y2238D01*
X7234Y2233D01*
X7314Y2217D01*
X7394Y2233D01*
X7462Y2278D01*
X7486Y2314D01*
X7723D01*
Y2198D01*
X8138D01*
Y2122D01*
X8010D01*
Y1894D01*
X7960D01*
Y1844D01*
X7723D01*
Y1748D01*
X7691Y1734D01*
X7637Y1779D01*
X7639Y1790D01*
X7623Y1870D01*
X7578Y1938D01*
X7510Y1983D01*
X7430Y1999D01*
X7350Y1983D01*
X7282Y1938D01*
X7237Y1870D01*
X7221Y1790D01*
X7237Y1710D01*
X7282Y1642D01*
X7350Y1597D01*
X7430Y1581D01*
X7472Y1589D01*
X7571Y1491D01*
X7607Y1466D01*
X7650Y1458D01*
X7650Y1458D01*
X8007D01*
Y1073D01*
X8117D01*
X8122Y1072D01*
X8131Y1029D01*
X8155Y992D01*
X8226Y921D01*
X8226Y921D01*
X8263Y896D01*
X8263Y896D01*
X8263Y896D01*
D01*
X8263Y896D01*
X8263Y896D01*
X8306Y888D01*
X8306Y888D01*
X8593D01*
Y358D01*
X7693D01*
Y358D01*
Y403D01*
X7693Y408D01*
X7693Y408D01*
X7693D01*
Y877D01*
X7688D01*
X7655Y939D01*
X7659Y944D01*
X7675Y1024D01*
X7659Y1104D01*
X7614Y1172D01*
X7546Y1217D01*
X7466Y1233D01*
X7386Y1217D01*
X7318Y1172D01*
X7273Y1104D01*
X7257Y1024D01*
X7273Y944D01*
X7276Y939D01*
X7243Y877D01*
X7238D01*
Y408D01*
X7238Y408D01*
X7238D01*
X7238Y403D01*
X7194Y358D01*
X7162D01*
Y403D01*
X7162D01*
Y877D01*
X6707D01*
Y752D01*
X6327D01*
Y934D01*
X5754D01*
Y358D01*
X5646D01*
Y934D01*
X5073D01*
Y358D01*
X4923D01*
Y358D01*
Y403D01*
X4923Y408D01*
X4923Y408D01*
X4923D01*
Y877D01*
X4914D01*
X4900Y947D01*
X4968Y992D01*
X5013Y1060D01*
X5029Y1140D01*
X5013Y1220D01*
X4968Y1288D01*
X4900Y1333D01*
X4820Y1349D01*
X4740Y1333D01*
X4672Y1288D01*
X4627Y1220D01*
X4611Y1140D01*
X4619Y1098D01*
X4616Y1095D01*
X4592Y1059D01*
X4584Y1016D01*
X4584Y1016D01*
Y877D01*
X4468D01*
Y408D01*
X4468Y408D01*
X4468D01*
X4468Y403D01*
X4424Y358D01*
X4392D01*
Y403D01*
X4392D01*
Y877D01*
X3937D01*
Y754D01*
X3667D01*
Y934D01*
X3094D01*
Y358D01*
X2986D01*
Y934D01*
X2986D01*
X2979Y936D01*
X2968Y1002D01*
X3013Y1070D01*
X3029Y1150D01*
X3013Y1230D01*
X2968Y1298D01*
X3011Y1363D01*
X3283D01*
Y1397D01*
X3348Y1423D01*
X3441Y1331D01*
X3441Y1331D01*
X3477Y1306D01*
X3520Y1298D01*
X3520Y1298D01*
X3618D01*
X3642Y1262D01*
X3710Y1217D01*
X3790Y1201D01*
X3870Y1217D01*
X3938Y1262D01*
X3983Y1330D01*
X3999Y1410D01*
X3983Y1490D01*
X3938Y1558D01*
X3870Y1603D01*
X3790Y1619D01*
X3710Y1603D01*
X3642Y1558D01*
X3628Y1537D01*
X3559Y1530D01*
X3409Y1679D01*
X3373Y1704D01*
X3330Y1712D01*
D01*
D01*
D01*
X3330Y1712D01*
D01*
X3283Y1759D01*
Y1837D01*
X2828D01*
Y1420D01*
X2765Y1390D01*
X2752Y1401D01*
Y1837D01*
X2297D01*
Y1712D01*
X2136D01*
X2069Y1779D01*
X2033Y1804D01*
X1990Y1812D01*
X1990Y1812D01*
X1857D01*
X1845Y1841D01*
X1800Y1900D01*
X1780Y1915D01*
Y1985D01*
X1800Y2000D01*
X1845Y2059D01*
X1873Y2127D01*
X1882Y2200D01*
X1873Y2273D01*
X1845Y2341D01*
X1800Y2400D01*
X1780Y2415D01*
Y2485D01*
X1800Y2500D01*
X1845Y2559D01*
X1873Y2627D01*
X1882Y2700D01*
X1873Y2773D01*
X1845Y2841D01*
X1800Y2900D01*
X1780Y2915D01*
Y2985D01*
X1800Y3000D01*
X1845Y3059D01*
X1857Y3088D01*
X2120D01*
X2120Y3088D01*
X2163Y3096D01*
X2199Y3121D01*
X2299Y3221D01*
X2299Y3221D01*
X2324Y3257D01*
X2332Y3300D01*
Y3543D01*
X2390Y3582D01*
X2427Y3567D01*
Y3523D01*
X2882D01*
Y3967D01*
X2895Y3978D01*
X2958Y3948D01*
Y3523D01*
X3413D01*
Y3702D01*
X3480Y3722D01*
X3482Y3719D01*
X3691Y3511D01*
X3691Y3511D01*
X3727Y3486D01*
X3727Y3486D01*
X3727Y3486D01*
D01*
X3727Y3486D01*
X3727Y3486D01*
X3770Y3478D01*
X3770Y3478D01*
X4090D01*
X4090Y3478D01*
X4133Y3486D01*
X4169Y3511D01*
X4653Y3995D01*
X4653Y3995D01*
X4667Y4016D01*
X4737Y4023D01*
X4778Y3981D01*
D02*
G37*
%LPC*%
G36*
X10047Y2594D02*
X9860D01*
Y2417D01*
X10047D01*
Y2594D01*
D02*
G37*
G36*
X9760D02*
X9573D01*
Y2417D01*
X9760D01*
Y2594D01*
D02*
G37*
G36*
X4250Y2493D02*
X4063D01*
Y2316D01*
X4250D01*
Y2493D01*
D02*
G37*
G36*
X14315Y3048D02*
X13793D01*
Y2624D01*
X14315D01*
Y3048D01*
D02*
G37*
G36*
X9760Y2872D02*
X9573D01*
Y2694D01*
X9760D01*
Y2872D01*
D02*
G37*
G36*
X13693Y3048D02*
X13171D01*
Y2624D01*
X13693D01*
Y3048D01*
D02*
G37*
G36*
X11547D02*
X11025D01*
Y2624D01*
X11547D01*
Y3048D01*
D02*
G37*
G36*
X12169D02*
X11647D01*
Y2624D01*
X12169D01*
Y3048D01*
D02*
G37*
G36*
X14764Y1525D02*
X14301D01*
Y1180D01*
X14764D01*
Y1525D01*
D02*
G37*
G36*
X1050Y1650D02*
X824D01*
X827Y1627D01*
X855Y1559D01*
X900Y1500D01*
X959Y1455D01*
X1027Y1427D01*
X1050Y1424D01*
Y1650D01*
D02*
G37*
G36*
X14201Y1525D02*
X13738D01*
Y1180D01*
X14201D01*
Y1525D01*
D02*
G37*
G36*
Y1080D02*
X13738D01*
Y735D01*
X14201D01*
Y1080D01*
D02*
G37*
G36*
X14764D02*
X14301D01*
Y735D01*
X14764D01*
Y1080D01*
D02*
G37*
G36*
X3099Y3192D02*
X3065Y3190D01*
X3027Y3187D01*
X2993Y3181D01*
X2967Y3176D01*
X2942Y3169D01*
X2917Y3162D01*
X2892Y3153D01*
X2857Y3138D01*
X2823Y3121D01*
X2799Y3107D01*
X2776Y3093D01*
X2754Y3078D01*
X2733Y3061D01*
X2708Y3040D01*
X2684Y3018D01*
X2663Y2995D01*
X2643Y2971D01*
X2628Y2951D01*
X2613Y2931D01*
X2602Y2914D01*
X2592Y2897D01*
X2581Y2877D01*
X2567Y2849D01*
X2555Y2820D01*
X2548Y2804D01*
X2543Y2787D01*
X2532Y2752D01*
X2529Y2738D01*
X2525Y2722D01*
X2519Y2691D01*
X2513Y2581D01*
X2523Y2491D01*
X2543Y2411D01*
X2563Y2361D01*
X2583Y2321D01*
X2613Y2271D01*
X2633Y2244D01*
X2654Y2218D01*
X2683Y2186D01*
X2713Y2158D01*
X2733Y2141D01*
X2773Y2111D01*
X2807Y2090D01*
X2843Y2071D01*
X2877Y2055D01*
X2913Y2041D01*
X2954Y2030D01*
X2993Y2021D01*
X3032Y2015D01*
X3073Y2011D01*
X3104D01*
X3143Y2012D01*
X3180Y2015D01*
X3212Y2021D01*
X3253Y2030D01*
X3293Y2042D01*
X3336Y2058D01*
X3363Y2071D01*
X3399Y2090D01*
X3433Y2111D01*
X3458Y2129D01*
X3482Y2148D01*
X3501Y2164D01*
X3518Y2181D01*
X3538Y2202D01*
X3563Y2231D01*
X3593Y2271D01*
X3616Y2310D01*
X3633Y2341D01*
X3649Y2376D01*
X3662Y2412D01*
X3677Y2461D01*
X3683Y2491D01*
X3688Y2520D01*
X3691Y2549D01*
X3694Y2594D01*
X3693Y2631D01*
X3690Y2668D01*
X3687Y2690D01*
X3683Y2711D01*
X3678Y2736D01*
X3672Y2760D01*
X3663Y2790D01*
X3652Y2818D01*
X3644Y2839D01*
X3633Y2861D01*
X3614Y2897D01*
X3593Y2931D01*
X3563Y2971D01*
X3533Y3006D01*
X3503Y3036D01*
X3473Y3061D01*
X3453Y3076D01*
X3433Y3091D01*
X3399Y3112D01*
X3363Y3131D01*
X3346Y3139D01*
X3329Y3147D01*
X3293Y3160D01*
X3253Y3172D01*
X3213Y3181D01*
X3194Y3185D01*
X3173Y3187D01*
X3133Y3191D01*
X3099Y3192D01*
D02*
G37*
G36*
X4250Y2216D02*
X4063D01*
Y2038D01*
X4250D01*
Y2216D01*
D02*
G37*
G36*
X7137Y2162D02*
X6950D01*
Y1984D01*
X7137D01*
Y2162D01*
D02*
G37*
G36*
Y1884D02*
X6950D01*
Y1707D01*
X7137D01*
Y1884D01*
D02*
G37*
G36*
X7910Y2122D02*
X7723D01*
Y1944D01*
X7910D01*
Y2122D01*
D02*
G37*
G36*
X10047Y2872D02*
X9860D01*
Y2694D01*
X10047D01*
Y2872D01*
D02*
G37*
G36*
X12091Y5658D02*
X11608D01*
Y5530D01*
X12091D01*
Y5658D01*
D02*
G37*
G36*
X12169Y6552D02*
X11647D01*
Y6128D01*
X12169D01*
Y6552D01*
D02*
G37*
G36*
X13999Y5592D02*
X13965Y5590D01*
X13927Y5587D01*
X13893Y5581D01*
X13867Y5576D01*
X13842Y5569D01*
X13817Y5562D01*
X13792Y5553D01*
X13757Y5538D01*
X13723Y5521D01*
X13699Y5507D01*
X13676Y5493D01*
X13654Y5478D01*
X13633Y5461D01*
X13608Y5440D01*
X13584Y5418D01*
X13563Y5395D01*
X13543Y5371D01*
X13528Y5351D01*
X13513Y5331D01*
X13502Y5314D01*
X13492Y5297D01*
X13481Y5277D01*
X13467Y5249D01*
X13455Y5220D01*
X13448Y5204D01*
X13443Y5187D01*
X13432Y5152D01*
X13429Y5138D01*
X13425Y5122D01*
X13420Y5091D01*
X13413Y4981D01*
X13423Y4891D01*
X13443Y4811D01*
X13463Y4761D01*
X13483Y4721D01*
X13513Y4671D01*
X13533Y4644D01*
X13554Y4618D01*
X13583Y4586D01*
X13613Y4558D01*
X13633Y4541D01*
X13673Y4511D01*
X13707Y4490D01*
X13743Y4471D01*
X13777Y4455D01*
X13813Y4441D01*
X13854Y4430D01*
X13893Y4421D01*
X13932Y4415D01*
X13973Y4411D01*
X14004D01*
X14043Y4412D01*
X14080Y4415D01*
X14112Y4421D01*
X14153Y4430D01*
X14193Y4442D01*
X14236Y4458D01*
X14263Y4471D01*
X14299Y4490D01*
X14333Y4511D01*
X14358Y4529D01*
X14382Y4548D01*
X14401Y4564D01*
X14418Y4581D01*
X14438Y4602D01*
X14463Y4631D01*
X14493Y4671D01*
X14516Y4710D01*
X14533Y4741D01*
X14549Y4776D01*
X14562Y4812D01*
X14577Y4861D01*
X14583Y4891D01*
X14588Y4920D01*
X14591Y4949D01*
X14594Y4994D01*
X14593Y5031D01*
X14590Y5068D01*
X14587Y5090D01*
X14583Y5111D01*
X14578Y5136D01*
X14572Y5160D01*
X14563Y5190D01*
X14552Y5218D01*
X14544Y5239D01*
X14533Y5261D01*
X14514Y5297D01*
X14493Y5331D01*
X14463Y5371D01*
X14433Y5406D01*
X14403Y5436D01*
X14373Y5461D01*
X14353Y5476D01*
X14333Y5491D01*
X14299Y5512D01*
X14263Y5531D01*
X14246Y5539D01*
X14229Y5547D01*
X14193Y5560D01*
X14153Y5572D01*
X14113Y5581D01*
X14094Y5584D01*
X14073Y5587D01*
X14033Y5591D01*
X13999Y5592D01*
D02*
G37*
G36*
X12582Y5978D02*
X12514Y5969D01*
X12450Y5943D01*
X12396Y5902D01*
X12354Y5847D01*
X12328Y5784D01*
X12319Y5716D01*
X12328Y5648D01*
X12354Y5585D01*
X12396Y5531D01*
X12450Y5489D01*
X12514Y5463D01*
X12582Y5454D01*
X12649Y5463D01*
X12713Y5489D01*
X12767Y5531D01*
X12809Y5585D01*
X12835Y5648D01*
X12844Y5716D01*
X12835Y5784D01*
X12809Y5847D01*
X12767Y5902D01*
X12713Y5943D01*
X12649Y5969D01*
X12582Y5978D01*
D02*
G37*
G36*
X13693Y6552D02*
X13171D01*
Y6128D01*
X13693D01*
Y6552D01*
D02*
G37*
G36*
Y7076D02*
X13171D01*
Y6652D01*
X13693D01*
Y7076D01*
D02*
G37*
G36*
X14315D02*
X13793D01*
Y6652D01*
X14315D01*
Y7076D01*
D02*
G37*
G36*
Y6552D02*
X13793D01*
Y6128D01*
X14315D01*
Y6552D01*
D02*
G37*
G36*
X12169Y7076D02*
X11647D01*
Y6652D01*
X12169D01*
Y7076D01*
D02*
G37*
G36*
X7436Y3267D02*
X7258D01*
Y3080D01*
X7436D01*
Y3267D01*
D02*
G37*
G36*
X7713D02*
X7536D01*
Y3080D01*
X7713D01*
Y3267D01*
D02*
G37*
G36*
X7436Y2980D02*
X7258D01*
Y2793D01*
X7436D01*
Y2980D01*
D02*
G37*
G36*
X7713D02*
X7536D01*
Y2793D01*
X7713D01*
Y2980D01*
D02*
G37*
G36*
X11547Y3572D02*
X11025D01*
Y3148D01*
X11547D01*
Y3572D01*
D02*
G37*
G36*
X14315D02*
X13793D01*
Y3148D01*
X14315D01*
Y3572D01*
D02*
G37*
G36*
X12582Y4246D02*
X12514Y4237D01*
X12450Y4211D01*
X12396Y4169D01*
X12354Y4115D01*
X12328Y4052D01*
X12319Y3984D01*
X12328Y3916D01*
X12354Y3853D01*
X12396Y3798D01*
X12450Y3757D01*
X12514Y3731D01*
X12582Y3722D01*
X12649Y3731D01*
X12713Y3757D01*
X12767Y3798D01*
X12809Y3853D01*
X12835Y3916D01*
X12844Y3984D01*
X12835Y4052D01*
X12809Y4115D01*
X12767Y4169D01*
X12713Y4211D01*
X12649Y4237D01*
X12582Y4246D01*
D02*
G37*
G36*
X12169Y3572D02*
X11647D01*
Y3148D01*
X12169D01*
Y3572D01*
D02*
G37*
G36*
X13693D02*
X13171D01*
Y3148D01*
X13693D01*
Y3572D01*
D02*
G37*
%LPD*%
D10*
X9164Y3210D02*
D03*
X8416D02*
D03*
Y4155D02*
D03*
X8790D02*
D03*
X9164D02*
D03*
D11*
X5135Y2435D02*
D03*
Y1805D02*
D03*
X6001D02*
D03*
Y2435D02*
D03*
D12*
X5598Y4850D02*
D03*
D13*
X4574Y4161D02*
D03*
Y4358D02*
D03*
Y4555D02*
D03*
Y4752D02*
D03*
Y4948D02*
D03*
Y5145D02*
D03*
Y5342D02*
D03*
Y5539D02*
D03*
X6621D02*
D03*
Y5342D02*
D03*
Y5145D02*
D03*
Y4948D02*
D03*
Y4752D02*
D03*
Y4555D02*
D03*
Y4358D02*
D03*
Y4161D02*
D03*
D14*
X4909Y5874D02*
D03*
X5106D02*
D03*
X5302D02*
D03*
X5499D02*
D03*
X5696D02*
D03*
X5893D02*
D03*
X6090D02*
D03*
X6287D02*
D03*
Y3826D02*
D03*
X6090D02*
D03*
X5893D02*
D03*
X5696D02*
D03*
X5499D02*
D03*
X5302D02*
D03*
X5106D02*
D03*
X4909D02*
D03*
D15*
X14251Y1130D02*
D03*
X10629D02*
D03*
D16*
X3100Y2600D02*
D03*
X14000Y5000D02*
D03*
D17*
X8879Y641D02*
D03*
X9560D02*
D03*
X2699D02*
D03*
X3380D02*
D03*
X5359D02*
D03*
X6040D02*
D03*
D18*
X8560Y1894D02*
D03*
Y2426D02*
D03*
X7960Y1894D02*
D03*
Y2426D02*
D03*
X3934Y4224D02*
D03*
Y4756D02*
D03*
X4300Y1734D02*
D03*
Y2266D02*
D03*
X6900Y2466D02*
D03*
Y1934D02*
D03*
X9810Y2644D02*
D03*
Y3176D02*
D03*
X9180Y1894D02*
D03*
Y2426D02*
D03*
X2560Y4404D02*
D03*
Y4936D02*
D03*
X7580Y4156D02*
D03*
Y3624D02*
D03*
D19*
X10306Y6280D02*
D03*
X9774D02*
D03*
X10376Y4600D02*
D03*
X9844D02*
D03*
X7486Y3030D02*
D03*
X6954D02*
D03*
X4696Y640D02*
D03*
X4164D02*
D03*
X8766Y1310D02*
D03*
X8234D02*
D03*
X2654Y3760D02*
D03*
X3186D02*
D03*
X9096Y6280D02*
D03*
X8564D02*
D03*
X2524Y1600D02*
D03*
X3056D02*
D03*
X9656Y5180D02*
D03*
X9124D02*
D03*
X7466Y640D02*
D03*
X6934D02*
D03*
X9656Y5730D02*
D03*
X9124D02*
D03*
D20*
X8010Y6350D02*
D03*
Y5600D02*
D03*
D21*
X7210Y5980D02*
D03*
D22*
X13743Y6602D02*
D03*
Y3098D02*
D03*
X11597D02*
D03*
Y6602D02*
D03*
D23*
X11558Y4220D02*
D03*
Y4535D02*
D03*
Y4850D02*
D03*
Y5165D02*
D03*
Y5480D02*
D03*
D24*
X9124Y6252D02*
X9746D01*
X9124Y5730D02*
Y6252D01*
X8564Y6054D02*
Y6280D01*
X8490Y5980D02*
X8564Y6054D01*
X3257Y4660D02*
Y4932D01*
X3561Y3799D02*
Y4090D01*
Y3799D02*
X3770Y3590D01*
X4090D01*
X1009Y6800D02*
X1419Y6389D01*
X1800D01*
X3427Y4490D02*
X4180D01*
X3257Y4660D02*
X3427Y4490D01*
X6042Y640D02*
X6934D01*
X6001Y2435D02*
X6032Y2466D01*
X6900D01*
X5499Y2911D02*
Y3826D01*
Y2911D02*
X5570Y2840D01*
Y1880D02*
Y2840D01*
X5495Y1805D02*
X5570Y1880D01*
X5135Y1805D02*
X5495D01*
X6001D02*
X6395D01*
X6524Y1934D01*
X6900D01*
Y1560D02*
Y1934D01*
X4805Y2435D02*
X5135D01*
X4636Y2266D02*
X4805Y2435D01*
X4300Y2266D02*
X4636D01*
X4300D02*
Y2640D01*
Y1734D02*
X4624D01*
X4695Y1805D01*
X5135D01*
X3938Y4752D02*
X4574D01*
X11559Y5480D02*
X12180D01*
X12610Y5050D01*
X11599Y6602D02*
X12710D01*
X13744D01*
X11599Y3098D02*
X12730D01*
X13744D01*
X8560Y2426D02*
X9180D01*
X6090Y3560D02*
Y3826D01*
X5696Y3074D02*
Y3826D01*
Y3074D02*
X6001Y2769D01*
Y2435D02*
Y2769D01*
X6287Y3826D02*
X6434D01*
X6550Y3710D01*
X5106Y3346D02*
Y3826D01*
X5302Y3392D02*
Y3826D01*
X4909Y3579D02*
Y3826D01*
X6090Y3560D02*
X6260Y3390D01*
X6460D01*
X5893Y3480D02*
Y3826D01*
X6621Y4161D02*
X7575D01*
X4090Y3590D02*
X4574Y4074D01*
Y4161D01*
X7466Y640D02*
Y1024D01*
X6621Y5539D02*
Y6389D01*
X5730Y6740D02*
X6287Y6183D01*
Y5874D02*
Y6183D01*
X6240Y6770D02*
X6621Y6389D01*
X4312Y4358D02*
X4574D01*
X4180Y4490D02*
X4312Y4358D01*
X4750Y6740D02*
X5730D01*
X7314Y2426D02*
X7960D01*
X7200Y5980D02*
X8490D01*
X6621Y5145D02*
X8145D01*
X6621Y5342D02*
X6876D01*
X7134Y5600D01*
X8000D01*
X8238Y4948D02*
X8470Y5180D01*
X6621Y4948D02*
X8238D01*
X8730Y5730D02*
X9124D01*
X8145Y5145D02*
X8730Y5730D01*
X8470Y5180D02*
X9124D01*
X4860Y3100D02*
X5106Y3346D01*
X4574Y3244D02*
X4909Y3579D01*
X4574Y2906D02*
Y3244D01*
Y2906D02*
X4650Y2830D01*
X4980D01*
X5260Y3110D01*
Y3350D01*
X5302Y3392D01*
X6621Y4752D02*
X6944D01*
X7066Y4630D01*
X7070D01*
X10310Y6276D02*
Y6660D01*
X9520Y4600D02*
X9844D01*
X9124Y4996D02*
X9520Y4600D01*
X9124Y4996D02*
Y5180D01*
X10875Y4535D02*
X11559D01*
X10740Y4670D02*
X10875Y4535D01*
X10740Y4670D02*
Y4930D01*
X10490Y5180D02*
X10740Y4930D01*
X9656Y5180D02*
X10490D01*
X10990Y4850D02*
X11559D01*
X10900Y4940D02*
X10990Y4850D01*
X10900Y4940D02*
Y5090D01*
X10260Y5730D02*
X10900Y5090D01*
X9656Y5730D02*
X10260D01*
X700Y6800D02*
X1009D01*
X8870Y1670D02*
Y2100D01*
X8930Y2160D01*
X9490D01*
X9690Y1960D01*
X7430Y1790D02*
X7650Y1570D01*
X8770D01*
X8870Y1670D01*
X3100Y4551D02*
X3561Y4090D01*
X3100Y4551D02*
Y4867D01*
X700Y5800D02*
X2167D01*
X1800Y6389D02*
X3257Y4932D01*
X2167Y5800D02*
X3100Y4867D01*
X2210Y5340D02*
X2390D01*
X2560Y5170D01*
Y4936D02*
Y5170D01*
X2990Y4210D02*
X3186Y4014D01*
Y3760D02*
Y4014D01*
X4696Y1016D02*
X4820Y1140D01*
X4696Y640D02*
Y1016D01*
X1804Y4404D02*
X2560D01*
X1600Y4200D02*
X1804Y4404D01*
X1600Y3700D02*
Y4200D01*
X2370Y3760D02*
X2654D01*
X2220Y3610D02*
X2370Y3760D01*
X2220Y3300D02*
Y3610D01*
X2120Y3200D02*
X2220Y3300D01*
X1600Y3200D02*
X2120D01*
X9690Y1960D02*
X10400D01*
X10629Y1731D01*
Y1130D02*
Y1731D01*
X8776Y1320D02*
X9010D01*
X9060Y1270D01*
X9340D01*
X9580Y1510D01*
X9480Y1000D02*
X9560Y920D01*
Y641D02*
Y920D01*
X8306Y1000D02*
X9480D01*
X8234Y1072D02*
X8306Y1000D01*
X8234Y1072D02*
Y1310D01*
X3380Y641D02*
X4163D01*
X1600Y1700D02*
X1990D01*
X2090Y1600D01*
X2524D01*
X3520Y1410D02*
X3790D01*
X3330Y1600D02*
X3520Y1410D01*
X3056Y1600D02*
X3330D01*
X7960Y2426D02*
X8185D01*
X8250Y2361D01*
Y1944D02*
Y2361D01*
Y1944D02*
X8300Y1894D01*
X8560D01*
X5499Y5874D02*
Y6309D01*
D25*
X8000Y6350D02*
Y6594D01*
X7824Y6770D02*
X8000Y6594D01*
X6820Y6770D02*
X7824D01*
X6510Y7080D02*
X6820Y6770D01*
X2700Y200D02*
X5359D01*
Y641D01*
Y200D02*
X8880D01*
Y202D02*
Y640D01*
X3934Y3844D02*
Y4224D01*
X8416Y4155D02*
Y4660D01*
X8790Y4155D02*
Y4553D01*
X9180Y1520D02*
Y1894D01*
Y2426D02*
Y3194D01*
X8416Y4660D02*
X8616Y4860D01*
X9076Y3624D02*
X9164Y3536D01*
Y3210D02*
Y3536D01*
X7486Y3030D02*
X7850D01*
X6170D02*
X6954D01*
X5893Y3307D02*
X6170Y3030D01*
X5893Y3307D02*
Y3480D01*
X6954Y3030D02*
Y3404D01*
X7174Y3624D01*
X7580D01*
X9810Y2270D02*
Y2644D01*
X8616Y4860D02*
X8960D01*
X9164Y4656D01*
Y4155D02*
Y4656D01*
X3934Y4756D02*
Y6616D01*
X3750Y6800D02*
X3934Y6616D01*
X3200Y6800D02*
X3750D01*
X3550Y4756D02*
X3934D01*
X4020Y6800D02*
X4300Y7080D01*
X3750Y6800D02*
X4020D01*
X8000Y3624D02*
Y4520D01*
X4300Y7080D02*
X6510D01*
X7580Y3624D02*
X8000D01*
X9076D01*
X4300Y2640D02*
Y2880D01*
X3890Y3290D02*
X4300Y2880D01*
X10376Y4214D02*
Y4600D01*
X11409Y3820D02*
X11559Y3971D01*
Y4220D01*
X2700Y200D02*
Y641D01*
X2699Y641D02*
X2700Y641D01*
X2699Y641D02*
Y1029D01*
X2820Y1150D01*
X9810Y3820D02*
X11409D01*
X9164Y4155D02*
X9675D01*
X9810Y4020D01*
Y3176D02*
Y4020D01*
D26*
X1600Y1700D02*
D03*
X1100D02*
D03*
X1600Y2200D02*
D03*
X1100D02*
D03*
X1600Y2700D02*
D03*
X1100D02*
D03*
X1600Y3200D02*
D03*
X1100D02*
D03*
X1600Y3700D02*
D03*
X1100D02*
D03*
D27*
X3200Y6800D02*
D03*
X700D02*
D03*
D28*
X3200Y5800D02*
D03*
X700D02*
D03*
D29*
X12582Y5716D02*
D03*
Y3984D02*
D03*
D30*
X5125Y4378D02*
D03*
X6820Y6770D02*
D03*
X10730Y3100D02*
D03*
X1860Y5480D02*
D03*
Y7080D02*
D03*
X3509Y1850D02*
D03*
X1380Y290D02*
D03*
X3790Y1410D02*
D03*
X6900Y1560D02*
D03*
X4300Y2640D02*
D03*
X3934Y3844D02*
D03*
X14040Y450D02*
D03*
X12610Y5050D02*
D03*
X12710Y6602D02*
D03*
X12730Y3098D02*
D03*
X8790Y4553D02*
D03*
X9180Y1520D02*
D03*
X6550Y3710D02*
D03*
X6460Y3390D02*
D03*
X9810Y2270D02*
D03*
X4820Y1140D02*
D03*
X3550Y4760D02*
D03*
X4750Y6740D02*
D03*
X7466Y1024D02*
D03*
X6240Y6770D02*
D03*
X2990Y4210D02*
D03*
X7850Y3030D02*
D03*
X8000Y4520D02*
D03*
X4860Y3100D02*
D03*
X7314Y2426D02*
D03*
X3890Y3290D02*
D03*
X5260Y3110D02*
D03*
X7070Y4630D02*
D03*
X9580Y1510D02*
D03*
X10310Y6660D02*
D03*
X10376Y4214D02*
D03*
X7430Y1790D02*
D03*
X12390Y1150D02*
D03*
X2210Y5340D02*
D03*
X2820Y1150D02*
D03*
X5499Y6309D02*
D03*
M02*
